<?xml version="1.0" encoding="UTF-8" standalone="no"?>
<!-- Generator: Gravit.io -->
<svg xmlns="http://www.w3.org/2000/svg" xmlns:xlink="http://www.w3.org/1999/xlink" style="isolation:isolate" viewBox="160.696 144 229 229" width="80px" height="80px"><g><g><circle vector-effect="non-scaling-stroke" cx="275.19550000000004" cy="258.5" r="114.5" fill="rgb(16,39,45)"/><path d=" M 209.602 207.611 L 226.767 226.108 L 236.372 191.002 L 254.463 211.642 L 289.013 172.685 L 320.534 217.903 L 330.254 201.535 L 343.222 230.711 L 356.174 206.551 L 376.926 223.885 C 362.522 181.536 322.417 151.068 275.196 151.068 C 221.612 151.068 177.197 190.298 169.09 241.602 L 209.602 207.611 Z " fill="rgb(191,151,98)"/><path d=" M 293.572 252.846 L 291.923 224.496 L 285.252 222.249 L 291.419 216.669 L 289.657 191.712 L 279.086 206.099 L 289.402 185.596 L 288.776 172.92 L 254.53 211.642 L 293.572 252.846 Z " fill="rgb(247,249,234)"/><path d=" M 256.458 253.283 L 252.474 239.783 L 249.044 240.123 L 249.751 235.883 L 244.95 237.371 L 249.574 230.052 L 244.804 215.739 L 240.613 218.236 L 244.64 212.559 L 236.499 191.002 L 226.926 226.108 L 256.458 253.283 Z " fill="rgb(247,249,234)"/><path d=" M 338.807 247.456 L 334.831 228.285 L 331.385 227.49 L 334.212 225.369 L 332.446 217.506 L 328.615 217.65 L 333.152 215.297 L 330.074 201.534 L 320.385 217.903 L 338.807 247.456 Z " fill="rgb(247,249,234)"/><path d=" M 209.817 207.611 L 169.116 241.447 L 216.166 253.283 L 214.883 244.836 L 211.82 245.778 L 214.294 240.83 L 203.928 244.836 L 212.881 236.825 L 209.464 235.176 L 212.998 231.642 L 209.817 207.611 Z " fill="rgb(247,249,234)"/><path d=" M 304.386 320.285 C 305.906 321.327 307.206 322.174 309.813 322.174 C 311.599 322.174 312.717 321.772 313.771 321.185 C 310.571 320.934 308.764 319.745 307.218 318.761 C 305.699 317.718 304.394 316.871 301.788 316.871 C 300.004 316.871 298.881 317.273 297.827 317.858 C 301.035 318.11 302.839 319.299 304.386 320.285 Z " fill="rgb(133,204,175)"/><path d=" M 330.835 320.285 C 332.353 321.327 333.604 322.174 336.21 322.174 C 338.007 322.174 339.082 321.766 340.11 321.174 C 337.006 320.895 335.237 319.729 333.718 318.761 C 332.199 317.718 330.894 316.871 328.288 316.871 C 326.501 316.871 325.379 317.274 324.324 317.86 C 327.513 318.116 329.291 319.302 330.835 320.285 Z " fill="rgb(133,204,175)"/><path d=" M 357.182 320.285 C 358.564 321.232 359.964 322.009 362.161 322.146 C 362.563 321.598 362.969 321.052 363.359 320.497 C 361.983 320.006 360.933 319.348 360.013 318.761 C 358.495 317.718 357.537 316.871 354.357 316.871 C 352.904 316.871 351.759 317.273 350.659 317.859 C 353.634 318.218 355.374 319.362 357.182 320.285 Z " fill="rgb(133,204,175)"/><path d=" M 277.89 320.285 C 279.411 321.327 280.713 322.174 283.321 322.174 C 285.108 322.174 286.228 321.772 287.282 321.187 C 284.068 320.936 282.254 319.747 280.708 318.761 C 279.188 317.718 277.869 316.871 275.263 316.871 C 273.482 316.871 272.348 317.271 271.287 317.857 C 274.521 318.099 276.337 319.295 277.89 320.285 Z " fill="rgb(133,204,175)"/><path d=" M 354.359 321.588 C 352.841 320.546 351.883 319.698 348.702 319.698 C 348.276 319.698 347.883 319.741 347.504 319.803 C 346.703 320.251 345.761 320.657 344.573 320.924 C 344.213 321.131 343.854 321.352 343.488 321.587 C 341.858 322.694 339.902 324.062 335.882 324.062 C 331.866 324.062 329.802 322.694 328.063 321.587 C 326.545 320.544 325.24 319.697 322.634 319.697 C 322.078 319.697 321.596 319.741 321.152 319.813 C 320.369 320.23 319.451 320.613 318.333 320.876 C 317.965 321.096 317.597 321.334 317.204 321.587 C 315.573 322.694 313.402 324.062 309.384 324.062 C 305.366 324.062 303.302 322.694 301.564 321.587 C 300.045 320.544 298.739 319.697 296.133 319.697 C 295.577 319.697 295.094 319.741 294.648 319.813 C 293.866 320.23 292.95 320.612 291.833 320.875 C 291.464 321.096 291.095 321.334 290.702 321.587 C 289.072 322.694 286.897 324.062 282.879 324.062 C 278.861 324.062 276.791 322.694 275.053 321.587 C 273.534 320.544 272.215 319.697 269.608 319.697 C 269.033 319.697 268.533 319.743 268.073 319.82 C 267.303 320.224 266.402 320.595 265.317 320.856 C 264.935 321.081 264.555 321.328 264.15 321.587 C 262.522 322.694 260.293 324.062 256.275 324.062 C 252.257 324.062 250.079 322.694 248.342 321.587 C 246.821 320.544 245.864 319.697 242.683 319.697 C 242.258 319.697 241.865 319.739 241.485 319.801 C 240.685 320.249 239.743 320.657 238.553 320.922 C 238.193 321.129 237.835 321.351 237.469 321.585 C 235.84 322.692 233.884 324.06 229.865 324.06 C 225.846 324.06 223.783 322.692 222.045 321.585 C 220.527 320.543 219.222 319.695 216.615 319.695 C 216.06 319.695 215.578 319.741 215.132 319.811 C 214.349 320.229 213.432 320.612 212.314 320.875 C 211.946 321.095 211.578 321.334 211.184 321.585 C 209.555 322.692 207.384 324.06 203.366 324.06 C 199.347 324.06 197.283 322.692 195.546 321.585 C 194.026 320.543 192.722 319.695 190.114 319.695 C 189.547 319.695 189.055 319.742 188.602 319.815 C 188.13 320.066 187.623 320.304 187.043 320.511 C 206.551 348.194 238.756 366.285 275.196 366.285 C 310.082 366.285 341.08 349.696 360.777 323.992 C 357.702 323.7 355.865 322.546 354.359 321.588 Z " fill="rgb(133,204,175)"/><path d=" M 198.367 320.285 C 199.887 321.327 201.188 322.174 203.793 322.174 C 205.58 322.174 206.699 321.772 207.752 321.185 C 204.55 320.934 202.745 319.745 201.2 318.761 C 199.68 317.718 198.377 316.871 195.769 316.871 C 193.984 316.871 192.862 317.273 191.808 317.858 C 195.015 318.11 196.821 319.299 198.367 320.285 Z " fill="rgb(133,204,175)"/><path d=" M 224.815 320.285 C 226.334 321.327 227.584 322.174 230.191 322.174 C 231.989 322.174 233.063 321.766 234.091 321.174 C 230.986 320.895 229.217 319.729 227.698 318.761 C 226.18 317.718 224.876 316.871 222.269 316.871 C 220.483 316.871 219.36 317.274 218.306 317.86 C 221.494 318.116 223.273 319.302 224.815 320.285 Z " fill="rgb(133,204,175)"/><path d=" M 251.165 320.285 C 252.685 321.327 254.216 322.174 256.822 322.174 C 258.603 322.174 259.722 321.775 260.773 321.192 C 257.481 320.959 255.558 319.756 253.996 318.761 C 252.475 317.718 251.518 316.871 248.337 316.871 C 246.885 316.871 245.741 317.272 244.64 317.859 C 247.616 318.218 249.356 319.362 251.165 320.285 Z " fill="rgb(133,204,175)"/></g><g><path d=" M 194.033 297.288 L 194.033 297.288 L 194.033 297.288 Q 192.396 298.356 190.226 298.356 L 190.226 298.356 L 190.226 298.356 Q 188.055 298.356 186.419 297.288 L 186.419 297.288 L 186.419 297.288 Q 184.782 296.22 183.852 294.394 L 183.852 294.394 L 183.852 294.394 Q 182.922 292.568 182.474 290.432 L 182.474 290.432 L 182.474 290.432 Q 182.026 288.296 182.026 285.884 L 182.026 285.884 L 182.026 285.884 Q 182.026 283.473 182.474 281.337 L 182.474 281.337 L 182.474 281.337 Q 182.922 279.201 183.852 277.375 L 183.852 277.375 L 183.852 277.375 Q 184.782 275.549 186.419 274.481 L 186.419 274.481 L 186.419 274.481 Q 188.055 273.413 190.226 273.413 L 190.226 273.413 L 190.226 273.413 Q 192.396 273.413 194.033 274.481 L 194.033 274.481 L 194.033 274.481 Q 195.669 275.549 196.616 277.375 L 196.616 277.375 L 196.616 277.375 Q 197.564 279.201 198.012 281.337 L 198.012 281.337 L 198.012 281.337 Q 198.46 283.473 198.46 285.884 L 198.46 285.884 L 198.46 285.884 Q 198.46 288.296 198.012 290.432 L 198.012 290.432 L 198.012 290.432 Q 197.564 292.568 196.616 294.394 L 196.616 294.394 L 196.616 294.394 Q 195.669 296.22 194.033 297.288 Z  M 190.226 295.6 L 190.226 295.6 L 190.226 295.6 Q 191.983 295.6 193.188 294.084 L 193.188 294.084 L 193.188 294.084 Q 194.394 292.568 194.877 290.466 L 194.877 290.466 L 194.877 290.466 Q 195.359 288.365 195.359 285.884 L 195.359 285.884 L 195.359 285.884 Q 195.359 281.716 194.101 278.942 L 194.101 278.942 L 194.101 278.942 Q 192.844 276.169 190.226 276.169 L 190.226 276.169 L 190.226 276.169 Q 188.434 276.169 187.246 277.668 L 187.246 277.668 L 187.246 277.668 Q 186.057 279.166 185.575 281.268 L 185.575 281.268 L 185.575 281.268 Q 185.092 283.369 185.092 285.884 L 185.092 285.884 L 185.092 285.884 Q 185.092 290.053 186.35 292.826 L 186.35 292.826 L 186.35 292.826 Q 187.607 295.6 190.226 295.6 Z  M 211.448 298.356 L 211.448 298.356 L 211.448 298.356 Q 203.696 298.356 203.696 288.813 L 203.696 288.813 L 203.696 273.826 L 206.659 273.826 L 206.659 288.813 L 206.659 288.813 Q 206.659 295.6 211.448 295.6 L 211.448 295.6 L 211.448 295.6 Q 216.236 295.6 216.236 288.813 L 216.236 288.813 L 216.236 273.826 L 219.234 273.826 L 219.234 288.813 L 219.234 288.813 Q 219.234 293.774 217.167 296.065 L 217.167 296.065 L 217.167 296.065 Q 215.099 298.356 211.448 298.356 Z  M 234.151 297.942 L 231.188 297.942 L 231.188 276.686 L 224.263 276.686 L 224.263 273.826 L 241.076 273.826 L 241.076 276.686 L 234.151 276.686 L 234.151 297.942 Z  M 252.1 297.942 L 246.553 297.942 L 246.553 273.826 L 252.238 273.826 L 252.238 273.826 Q 254.856 273.826 256.837 274.86 L 256.837 274.86 L 256.837 274.86 Q 258.818 275.894 259.938 277.651 L 259.938 277.651 L 259.938 277.651 Q 261.057 279.408 261.591 281.475 L 261.591 281.475 L 261.591 281.475 Q 262.125 283.542 262.125 285.884 L 262.125 285.884 L 262.125 285.884 Q 262.125 288.124 261.626 290.139 L 261.626 290.139 L 261.626 290.139 Q 261.126 292.155 260.041 293.963 L 260.041 293.963 L 260.041 293.963 Q 258.956 295.772 256.906 296.857 L 256.906 296.857 L 256.906 296.857 Q 254.856 297.942 252.1 297.942 L 252.1 297.942 Z  M 249.551 276.548 L 249.551 295.221 L 252.203 295.221 L 252.203 295.221 Q 254.098 295.221 255.476 294.411 L 255.476 294.411 L 255.476 294.411 Q 256.854 293.601 257.595 292.189 L 257.595 292.189 L 257.595 292.189 Q 258.336 290.776 258.68 289.226 L 258.68 289.226 L 258.68 289.226 Q 259.025 287.676 259.025 285.884 L 259.025 285.884 L 259.025 285.884 Q 259.025 281.957 257.423 279.253 L 257.423 279.253 L 257.423 279.253 Q 255.821 276.548 252.582 276.548 L 252.582 276.548 L 249.551 276.548 Z  M 278.92 297.288 L 278.92 297.288 L 278.92 297.288 Q 277.284 298.356 275.113 298.356 L 275.113 298.356 L 275.113 298.356 Q 272.943 298.356 271.307 297.288 L 271.307 297.288 L 271.307 297.288 Q 269.67 296.22 268.74 294.394 L 268.74 294.394 L 268.74 294.394 Q 267.81 292.568 267.362 290.432 L 267.362 290.432 L 267.362 290.432 Q 266.914 288.296 266.914 285.884 L 266.914 285.884 L 266.914 285.884 Q 266.914 283.473 267.362 281.337 L 267.362 281.337 L 267.362 281.337 Q 267.81 279.201 268.74 277.375 L 268.74 277.375 L 268.74 277.375 Q 269.67 275.549 271.307 274.481 L 271.307 274.481 L 271.307 274.481 Q 272.943 273.413 275.113 273.413 L 275.113 273.413 L 275.113 273.413 Q 277.284 273.413 278.92 274.481 L 278.92 274.481 L 278.92 274.481 Q 280.557 275.549 281.504 277.375 L 281.504 277.375 L 281.504 277.375 Q 282.452 279.201 282.899 281.337 L 282.899 281.337 L 282.899 281.337 Q 283.347 283.473 283.347 285.884 L 283.347 285.884 L 283.347 285.884 Q 283.347 288.296 282.899 290.432 L 282.899 290.432 L 282.899 290.432 Q 282.452 292.568 281.504 294.394 L 281.504 294.394 L 281.504 294.394 Q 280.557 296.22 278.92 297.288 Z  M 275.113 295.6 L 275.113 295.6 L 275.113 295.6 Q 276.87 295.6 278.076 294.084 L 278.076 294.084 L 278.076 294.084 Q 279.282 292.568 279.764 290.466 L 279.764 290.466 L 279.764 290.466 Q 280.247 288.365 280.247 285.884 L 280.247 285.884 L 280.247 285.884 Q 280.247 281.716 278.989 278.942 L 278.989 278.942 L 278.989 278.942 Q 277.732 276.169 275.113 276.169 L 275.113 276.169 L 275.113 276.169 Q 273.322 276.169 272.133 277.668 L 272.133 277.668 L 272.133 277.668 Q 270.945 279.166 270.463 281.268 L 270.463 281.268 L 270.463 281.268 Q 269.98 283.369 269.98 285.884 L 269.98 285.884 L 269.98 285.884 Q 269.98 290.053 271.238 292.826 L 271.238 292.826 L 271.238 292.826 Q 272.495 295.6 275.113 295.6 Z  M 300.142 297.288 L 300.142 297.288 L 300.142 297.288 Q 298.506 298.356 296.335 298.356 L 296.335 298.356 L 296.335 298.356 Q 294.165 298.356 292.529 297.288 L 292.529 297.288 L 292.529 297.288 Q 290.892 296.22 289.962 294.394 L 289.962 294.394 L 289.962 294.394 Q 289.032 292.568 288.584 290.432 L 288.584 290.432 L 288.584 290.432 Q 288.136 288.296 288.136 285.884 L 288.136 285.884 L 288.136 285.884 Q 288.136 283.473 288.584 281.337 L 288.584 281.337 L 288.584 281.337 Q 289.032 279.201 289.962 277.375 L 289.962 277.375 L 289.962 277.375 Q 290.892 275.549 292.529 274.481 L 292.529 274.481 L 292.529 274.481 Q 294.165 273.413 296.335 273.413 L 296.335 273.413 L 296.335 273.413 Q 298.506 273.413 300.142 274.481 L 300.142 274.481 L 300.142 274.481 Q 301.779 275.549 302.726 277.375 L 302.726 277.375 L 302.726 277.375 Q 303.673 279.201 304.121 281.337 L 304.121 281.337 L 304.121 281.337 Q 304.569 283.473 304.569 285.884 L 304.569 285.884 L 304.569 285.884 Q 304.569 288.296 304.121 290.432 L 304.121 290.432 L 304.121 290.432 Q 303.673 292.568 302.726 294.394 L 302.726 294.394 L 302.726 294.394 Q 301.779 296.22 300.142 297.288 Z  M 296.335 295.6 L 296.335 295.6 L 296.335 295.6 Q 298.092 295.6 299.298 294.084 L 299.298 294.084 L 299.298 294.084 Q 300.504 292.568 300.986 290.466 L 300.986 290.466 L 300.986 290.466 Q 301.469 288.365 301.469 285.884 L 301.469 285.884 L 301.469 285.884 Q 301.469 281.716 300.211 278.942 L 300.211 278.942 L 300.211 278.942 Q 298.954 276.169 296.335 276.169 L 296.335 276.169 L 296.335 276.169 Q 294.544 276.169 293.355 277.668 L 293.355 277.668 L 293.355 277.668 Q 292.167 279.166 291.684 281.268 L 291.684 281.268 L 291.684 281.268 Q 291.202 283.369 291.202 285.884 L 291.202 285.884 L 291.202 285.884 Q 291.202 290.053 292.46 292.826 L 292.46 292.826 L 292.46 292.826 Q 293.717 295.6 296.335 295.6 Z  M 325.24 280.682 L 325.24 280.682 L 325.24 280.682 Q 325.24 283.025 323.948 284.903 L 323.948 284.903 L 323.948 284.903 Q 322.656 286.78 319.969 287.366 L 319.969 287.366 L 325.137 297.942 L 321.864 297.942 L 316.834 287.607 L 313.216 287.607 L 313.216 297.942 L 310.254 297.942 L 310.254 273.826 L 317.661 273.826 L 317.661 273.826 Q 321.691 273.826 323.466 275.773 L 323.466 275.773 L 323.466 275.773 Q 325.24 277.719 325.24 280.682 Z  M 317.73 276.548 L 313.216 276.548 L 313.216 284.885 L 317.73 284.885 L 317.73 284.885 Q 320.141 284.885 321.226 283.697 L 321.226 283.697 L 321.226 283.697 Q 322.312 282.508 322.312 280.751 L 322.312 280.751 L 322.312 280.751 Q 322.312 279.097 321.244 277.823 L 321.244 277.823 L 321.244 277.823 Q 320.176 276.548 317.73 276.548 L 317.73 276.548 Z  M 338.952 298.356 L 338.952 298.356 L 338.952 298.356 Q 336.195 298.356 334.111 296.84 L 334.111 296.84 L 334.111 296.84 Q 332.027 295.324 331.269 293.016 L 331.269 293.016 L 334.025 292.017 L 334.025 292.017 Q 334.714 293.67 336.058 294.652 L 336.058 294.652 L 336.058 294.652 Q 337.401 295.634 339.089 295.634 L 339.089 295.634 L 339.089 295.634 Q 340.984 295.634 342.087 294.583 L 342.087 294.583 L 342.087 294.583 Q 343.189 293.533 343.189 291.603 L 343.189 291.603 L 343.189 291.603 Q 343.189 288.468 338.331 286.367 L 338.331 286.367 L 338.331 286.367 Q 336.953 285.781 336.023 285.247 L 336.023 285.247 L 336.023 285.247 Q 335.093 284.713 334.077 283.869 L 334.077 283.869 L 334.077 283.869 Q 333.06 283.025 332.526 281.871 L 332.526 281.871 L 332.526 281.871 Q 331.992 280.717 331.992 279.27 L 331.992 279.27 L 331.992 279.27 Q 331.992 276.789 333.818 275.101 L 333.818 275.101 L 333.818 275.101 Q 335.644 273.413 338.676 273.413 L 338.676 273.413 L 338.676 273.413 Q 341.122 273.413 342.862 274.602 L 342.862 274.602 L 342.862 274.602 Q 344.602 275.79 345.118 277.685 L 345.118 277.685 L 342.397 278.581 L 342.397 278.581 Q 341.949 277.513 340.95 276.824 L 340.95 276.824 L 340.95 276.824 Q 339.951 276.135 338.573 276.135 L 338.573 276.135 L 338.573 276.135 Q 336.953 276.135 335.989 276.979 L 335.989 276.979 L 335.989 276.979 Q 335.024 277.823 335.024 279.27 L 335.024 279.27 L 335.024 279.27 Q 335.024 280.097 335.386 280.751 L 335.386 280.751 L 335.386 280.751 Q 335.748 281.406 336.54 281.957 L 336.54 281.957 L 336.54 281.957 Q 337.332 282.508 337.97 282.853 L 337.97 282.853 L 337.97 282.853 Q 338.607 283.197 339.813 283.714 L 339.813 283.714 L 339.813 283.714 Q 341.122 284.3 342.069 284.885 L 342.069 284.885 L 342.069 284.885 Q 343.017 285.471 344.068 286.401 L 344.068 286.401 L 344.068 286.401 Q 345.118 287.331 345.67 288.623 L 345.67 288.623 L 345.67 288.623 Q 346.221 289.915 346.221 291.5 L 346.221 291.5 L 346.221 291.5 Q 346.221 294.704 344.188 296.53 L 344.188 296.53 L 344.188 296.53 Q 342.155 298.356 338.952 298.356 Z  M 360.036 285.505 L 365.238 273.826 L 368.407 273.826 L 361.517 288.434 L 361.517 297.942 L 358.554 297.942 L 358.554 288.434 L 351.595 273.826 L 354.902 273.826 L 360.036 285.505 Z " fill="rgb(255,255,255)"/></g></g></svg>